<svg t="1624339130920" source="https://www.iconfont.cn" class="icon" viewBox="0 0 1024 1024" version="1.1" xmlns="http://www.w3.org/2000/svg" p-id="1179" width="40" height="40"><path d="M708.85376 416.19456c0 2.0992-0.65536 4.1984-1.9968 5.96992-2.68288 3.56352-7.424 4.89472-11.5712 3.24608L571.52512 376.5248l0 286.52544c0 5.4784-4.44416 9.92256-9.9328 9.92256l-99.18464 0c-5.46816 0-9.91232-4.44416-9.91232-9.92256L452.49536 376.5248l-123.78112 48.88576c-4.13696 1.6384-8.87808 0.3072-11.56096-3.24608-2.69312-3.56352-2.68288-8.47872 0.06144-12.01152L504.13568 167.0144c1.88416-2.44736 4.78208-3.87072 7.86432-3.87072s5.9904 1.4336 7.86432 3.87072l186.9312 243.13856C708.15744 411.92448 708.85376 414.0544 708.85376 416.19456zM512 726.51776c-46.32576 0-83.88608 37.55008-83.88608 83.88608 0 46.336 37.56032 83.88608 83.88608 83.88608s83.89632-37.55008 83.89632-83.88608C595.89632 764.07808 558.32576 726.51776 512 726.51776z" p-id="1180" fill="#bfbfbf"></path></svg>