<svg t="1634712037306" class="icon" viewBox="0 0 1024 1024" version="1.1" xmlns="http://www.w3.org/2000/svg" p-id="3814"  width="40" height="40"><path d="M956.96497373 783.22135977c-3.28732207 17.50931455-14.60263008 28.85922598-28.7208123 28.85922598h-2.35303067c-27.68271065 0.06920684-50.10570703 22.49220234-50.17491299 50.17491386 0.3806376 6.57464414 1.90318623 13.04547715 4.42923311 19.10107002 6.74766035 15.70993857 1.59175547 33.94592402-12.35340967 43.80789024l-1.38413496 0.9342914-58.23750322 32.04273779a37.37165977 37.37165977 0 0 1-15.9521625 3.66795967c-10.93467041 0-21.73092803-4.60225107-28.58239863-12.24960029-7.50893555-8.13179619-27.37128076-24.94904326-41.35104932-24.94904238-13.66833867 0-33.87671719 16.81724707-40.93580919 24.49919883a39.34405283 39.34405283 0 0 1-43.1850287 8.96227733l-57.58003828-32.00813437c-15.15628388-10.51943028-20.45060244-29.41288066-13.56452842-44.77678506 1.21111875-2.83747763 4.39463057-11.83435927 4.39463056-18.96265635 0-27.64810722-22.5960126-50.17491387-50.2441207-50.17491386h-1.97239306c-14.46421641 0-25.71031758-11.38451484-29.06684649-28.92843281-0.51905039-2.66446055-4.94828438-26.99064316-4.94828437-46.5069542 0-19.58551787 4.42923398-43.98090732 4.94828437-46.57616104 3.35652891-17.50931455 14.60263008-28.92843281 28.7208123-28.92843281h2.35303067c27.68271065 0 50.17491387-22.38839209 50.24412071-50.07110362a56.40352383 56.40352383 0 0 0-4.46383741-19.17027685 36.26435127 36.26435127 0 0 1 12.4226165-43.84249365l1.38413584-0.83048116 59.69084502-32.80401211 1.14191192-0.44984443a39.69008701 39.69008701 0 0 1 42.80439111 8.92767393c7.26671162 7.6127458 26.81762607 23.49570059 40.34755195 23.49570146 13.32230449 0 32.76940869-15.53692148 40.03612031-23.11506386 11.31530801-11.17689434 28.20176192-14.53342325 42.90820137-8.54703721l58.61814082 32.42337539c15.22549073 10.51943028 20.5544127 29.4820875 13.63373526 44.8459919a59.06798438 59.06798438 0 0 0-4.32542373 18.99725976c0.06920684 27.64810722 22.49220234 50.0365002 50.17491299 50.07110362h2.00699648c14.42961299 0 25.71031758 11.38451484 29.06684649 28.96303623 0.48444785 2.62985713 4.94828438 26.95603974 4.94828524 46.57616102 0 20.58901612-4.94828438 46.33393711-4.87907841 46.54155763z m-43.70407998-77.30396983a95.74757666 95.74757666 0 0 1-83.29035586-94.88249209c0.17301709-9.89656875 1.90318623-19.65472471 5.12130146-28.99763965l-41.48946299-23.04585615a170.87153291 170.87153291 0 0 1-17.12867695 13.84135488c-18.1321752 12.73404727-35.43387011 19.17027685-51.6974625 19.17027774-16.50581631 0-34.01513086-6.43623047-52.21651376-19.51631103a149.83267237 149.83267237 0 0 1-17.16328038-14.22199336l-43.39265009 23.84173476c2.4222375 7.19750479 5.15590488 17.82074531 5.15590488 28.96303623a95.85138604 95.85138604 0 0 1-83.35956269 94.95169893 226.82521231 226.82521231 0 0 0-2.87208106 30.65860195c0.27682734 10.24260292 1.21111875 20.45060244 2.87208106 30.58939512a95.71297324 95.71297324 0 0 1 83.35956269 94.95169892c0 11.07308408-2.83747763 21.76553144-5.19050831 28.99763965l40.13993145 22.42299551c5.43273223-5.1905083 11.14229092-10.03498242 17.16328037-14.49881982 18.40900253-13.42611474 36.29895469-20.34679219 52.97778809-20.34679219 16.92105732 0 34.94942227 7.05909112 53.53144189 20.79663662 6.05559287 4.53304424 11.83435927 9.48132862 17.26709151 14.77564628l42.00851338-23.1496664a95.02090489 95.02090489 0 0 1-5.08669805-28.96303623 95.67836982 95.67836982 0 0 1 83.29035586-94.95169893c1.17651533-7.92417568 2.87208106-20.72742979 2.87208193-30.69320537 0-10.00037901-1.69556573-22.73442627-2.87208193-30.69320537z m-190.73387724 118.9664499a88.75769151 88.75769151 0 0 1-88.61927872-88.58467529 88.65388125 88.65388125 0 0 1 177.23855655 0 88.75769151 88.75769151 0 0 1-88.61927783 88.58467529z m0-129.76270752c-23.04585703 0-42.00851338 18.20138203-42.97740909 41.21263565a42.9774082 42.9774082 0 0 0 85.92021387 0 43.01201162 43.01201162 0 0 0-42.94280478-41.21263565z m-128.58619219-225.61409355l-14.42961299 11.21149776c-29.37827724 26.12555859-85.43576602 34.84561201-122.4959959 37.71769394l-4.74066387-0.10381026a344.64975029 344.64975029 0 0 0-31.21225664 1.48794522h-0.44984443l0.06920683 0.06920684c-167.65341768 15.81374883-299.28470801 156.30350625-299.284708 326.93281611v50.14030957h367.38417656a298.76565674 298.76565674 0 0 0 35.81450771 58.61814082H91.77644902A29.4820875 29.4820875 0 0 1 62.15594785 926.30637178v-79.4839834c0-159.10638047 96.47424756-300.18439599 245.85707637-359.42539746l16.92105732-6.6784544-14.36040615-11.21149775c-56.12669648-43.77328682-88.23864112-109.06988115-88.23864112-179.31475986 0-125.74871455 103.11809766-228.03633106 229.87031046-228.03633106 126.78681622 0 229.90491386 102.28761651 229.9741207 228.03633106 0 70.24487871-32.2503583 135.54147305-88.23864111 179.31475986zM452.23994815 120.80869209c-94.08661347 0-170.62930898 76.02364511-170.62930899 169.38358682 0 93.42914941 76.5426955 169.45279365 170.62930899 169.45279453 94.1212169 0 170.6639124-75.9890417 170.6639124-169.45279453 0-93.42914941-76.5426955-169.38358682-170.6639124-169.38358682z" p-id="3815" fill="#345bac"></path></svg>